<svg width="85" height="70" viewBox="0 0 85 70" fill="none" xmlns="http://www.w3.org/2000/svg">
<path d="M9.42928 5.10692C9.42928 7.72932 7.31846 9.85519 4.71464 9.85519C2.11082 9.85519 0 7.72932 0 5.10692C0 2.48452 2.11082 0.358643 4.71464 0.358643C7.31846 0.358643 9.42928 2.48452 9.42928 5.10692Z" fill="#C4C4C4"/>
<path d="M9.42928 45.2035C9.42928 47.8259 7.31846 49.9518 4.71464 49.9518C2.11082 49.9518 0 47.8259 0 45.2035C0 42.5811 2.11082 40.4552 4.71464 40.4552C7.31846 40.4552 9.42928 42.5811 9.42928 45.2035Z" fill="#C4C4C4"/>
<path d="M9.42928 25.1551C9.42928 27.7775 7.31846 29.9034 4.71464 29.9034C2.11082 29.9034 0 27.7775 0 25.1551C0 22.5327 2.11082 20.4069 4.71464 20.4069C7.31846 20.4069 9.42928 22.5327 9.42928 25.1551Z" fill="#C4C4C4"/>
<path d="M9.42928 65.2517C9.42928 67.8741 7.31846 70 4.71464 70C2.11082 70 0 67.8741 0 65.2517C0 62.6293 2.11082 60.5034 4.71464 60.5034C7.31846 60.5034 9.42928 62.6293 9.42928 65.2517Z" fill="#C4C4C4"/>
<path d="M59.7188 5.10692C59.7188 7.72932 57.608 9.85519 55.0041 9.85519C52.4003 9.85519 50.2895 7.72932 50.2895 5.10692C50.2895 2.48452 52.4003 0.358643 55.0041 0.358643C57.608 0.358643 59.7188 2.48452 59.7188 5.10692Z" fill="#C4C4C4"/>
<path d="M59.7188 45.2035C59.7188 47.8259 57.608 49.9518 55.0041 49.9518C52.4003 49.9518 50.2895 47.8259 50.2895 45.2035C50.2895 42.5811 52.4003 40.4552 55.0041 40.4552C57.608 40.4552 59.7188 42.5811 59.7188 45.2035Z" fill="#C4C4C4"/>
<path d="M59.7188 25.1551C59.7188 27.7775 57.608 29.9034 55.0041 29.9034C52.4003 29.9034 50.2895 27.7775 50.2895 25.1551C50.2895 22.5327 52.4003 20.4069 55.0041 20.4069C57.608 20.4069 59.7188 22.5327 59.7188 25.1551Z" fill="#C4C4C4"/>
<path d="M59.7188 65.2517C59.7188 67.8741 57.608 70 55.0041 70C52.4003 70 50.2895 67.8741 50.2895 65.2517C50.2895 62.6293 52.4003 60.5034 55.0041 60.5034C57.608 60.5034 59.7188 62.6293 59.7188 65.2517Z" fill="#C4C4C4"/>
<path d="M34.574 5.10692C34.574 7.72932 32.4632 9.85519 29.8594 9.85519C27.2555 9.85519 25.1447 7.72932 25.1447 5.10692C25.1447 2.48452 27.2555 0.358643 29.8594 0.358643C32.4632 0.358643 34.574 2.48452 34.574 5.10692Z" fill="#C4C4C4"/>
<path d="M34.574 45.2035C34.574 47.8259 32.4632 49.9518 29.8594 49.9518C27.2555 49.9518 25.1447 47.8259 25.1447 45.2035C25.1447 42.5811 27.2555 40.4552 29.8594 40.4552C32.4632 40.4552 34.574 42.5811 34.574 45.2035Z" fill="#C4C4C4"/>
<path d="M34.574 25.1551C34.574 27.7775 32.4632 29.9034 29.8594 29.9034C27.2555 29.9034 25.1447 27.7775 25.1447 25.1551C25.1447 22.5327 27.2555 20.4069 29.8594 20.4069C32.4632 20.4069 34.574 22.5327 34.574 25.1551Z" fill="#C4C4C4"/>
<path d="M34.574 65.2517C34.574 67.8741 32.4632 70 29.8594 70C27.2555 70 25.1447 67.8741 25.1447 65.2517C25.1447 62.6293 27.2555 60.5034 29.8594 60.5034C32.4632 60.5034 34.574 62.6293 34.574 65.2517Z" fill="#C4C4C4"/>
<path d="M84.8635 5.10692C84.8635 7.72932 82.7527 9.85519 80.1488 9.85519C77.545 9.85519 75.4342 7.72932 75.4342 5.10692C75.4342 2.48452 77.545 0.358643 80.1488 0.358643C82.7527 0.358643 84.8635 2.48452 84.8635 5.10692Z" fill="#C4C4C4"/>
<path d="M84.8635 45.2035C84.8635 47.8259 82.7527 49.9518 80.1488 49.9518C77.545 49.9518 75.4342 47.8259 75.4342 45.2035C75.4342 42.5811 77.545 40.4552 80.1488 40.4552C82.7527 40.4552 84.8635 42.5811 84.8635 45.2035Z" fill="#C4C4C4"/>
<path d="M84.8635 25.1551C84.8635 27.7775 82.7527 29.9034 80.1488 29.9034C77.545 29.9034 75.4342 27.7775 75.4342 25.1551C75.4342 22.5327 77.545 20.4069 80.1488 20.4069C82.7527 20.4069 84.8635 22.5327 84.8635 25.1551Z" fill="#C4C4C4"/>
<path d="M84.8635 65.2517C84.8635 67.8741 82.7527 70 80.1488 70C77.545 70 75.4342 67.8741 75.4342 65.2517C75.4342 62.6293 77.545 60.5034 80.1488 60.5034C82.7527 60.5034 84.8635 62.6293 84.8635 65.2517Z" fill="#C4C4C4"/>
</svg>
