<svg width="86" height="71" viewBox="0 0 86 71" fill="none" xmlns="http://www.w3.org/2000/svg">
<path d="M10.2912 5.25169C10.2912 7.87409 8.18034 9.99997 5.57652 9.99997C2.97269 9.99997 0.861877 7.87409 0.861877 5.25169C0.861877 2.62929 2.97269 0.503418 5.57652 0.503418C8.18034 0.503418 10.2912 2.62929 10.2912 5.25169Z" fill="#FFCE07"/>
<path d="M10.2912 45.3483C10.2912 47.9707 8.18034 50.0965 5.57652 50.0965C2.97269 50.0965 0.861877 47.9707 0.861877 45.3483C0.861877 42.7259 2.97269 40.6 5.57652 40.6C8.18034 40.6 10.2912 42.7259 10.2912 45.3483Z" fill="#FFCE07"/>
<path d="M10.2912 25.3C10.2912 27.9224 8.18034 30.0483 5.57652 30.0483C2.97269 30.0483 0.861877 27.9224 0.861877 25.3C0.861877 22.6776 2.97269 20.5518 5.57652 20.5518C8.18034 20.5518 10.2912 22.6776 10.2912 25.3Z" fill="#FFCE07"/>
<path d="M10.2912 65.3966C10.2912 68.019 8.18034 70.1449 5.57652 70.1449C2.97269 70.1449 0.861877 68.019 0.861877 65.3966C0.861877 62.7742 2.97269 60.6483 5.57652 60.6483C8.18034 60.6483 10.2912 62.7742 10.2912 65.3966Z" fill="#FFCE07"/>
<path d="M60.5807 5.25169C60.5807 7.87409 58.4698 9.99997 55.866 9.99997C53.2622 9.99997 51.1514 7.87409 51.1514 5.25169C51.1514 2.62929 53.2622 0.503418 55.866 0.503418C58.4698 0.503418 60.5807 2.62929 60.5807 5.25169Z" fill="#FFCE07"/>
<path d="M60.5807 45.3483C60.5807 47.9707 58.4698 50.0965 55.866 50.0965C53.2622 50.0965 51.1514 47.9707 51.1514 45.3483C51.1514 42.7259 53.2622 40.6 55.866 40.6C58.4698 40.6 60.5807 42.7259 60.5807 45.3483Z" fill="#FFCE07"/>
<path d="M60.5807 25.3C60.5807 27.9224 58.4698 30.0483 55.866 30.0483C53.2622 30.0483 51.1514 27.9224 51.1514 25.3C51.1514 22.6776 53.2622 20.5518 55.866 20.5518C58.4698 20.5518 60.5807 22.6776 60.5807 25.3Z" fill="#FFCE07"/>
<path d="M60.5807 65.3966C60.5807 68.019 58.4698 70.1449 55.866 70.1449C53.2622 70.1449 51.1514 68.019 51.1514 65.3966C51.1514 62.7742 53.2622 60.6483 55.866 60.6483C58.4698 60.6483 60.5807 62.7742 60.5807 65.3966Z" fill="#FFCE07"/>
<path d="M35.4359 5.25169C35.4359 7.87409 33.3251 9.99997 30.7213 9.99997C28.1175 9.99997 26.0066 7.87409 26.0066 5.25169C26.0066 2.62929 28.1175 0.503418 30.7213 0.503418C33.3251 0.503418 35.4359 2.62929 35.4359 5.25169Z" fill="#FFCE07"/>
<path d="M35.4359 45.3483C35.4359 47.9707 33.3251 50.0965 30.7213 50.0965C28.1175 50.0965 26.0066 47.9707 26.0066 45.3483C26.0066 42.7259 28.1175 40.6 30.7213 40.6C33.3251 40.6 35.4359 42.7259 35.4359 45.3483Z" fill="#FFCE07"/>
<path d="M35.4359 25.3C35.4359 27.9224 33.3251 30.0483 30.7213 30.0483C28.1175 30.0483 26.0066 27.9224 26.0066 25.3C26.0066 22.6776 28.1175 20.5518 30.7213 20.5518C33.3251 20.5518 35.4359 22.6776 35.4359 25.3Z" fill="#FFCE07"/>
<path d="M35.4359 65.3966C35.4359 68.019 33.3251 70.1449 30.7213 70.1449C28.1175 70.1449 26.0066 68.019 26.0066 65.3966C26.0066 62.7742 28.1175 60.6483 30.7213 60.6483C33.3251 60.6483 35.4359 62.7742 35.4359 65.3966Z" fill="#FFCE07"/>
<path d="M85.7254 5.25169C85.7254 7.87409 83.6146 9.99997 81.0108 9.99997C78.4069 9.99997 76.2961 7.87409 76.2961 5.25169C76.2961 2.62929 78.4069 0.503418 81.0108 0.503418C83.6146 0.503418 85.7254 2.62929 85.7254 5.25169Z" fill="#FFCE07"/>
<path d="M85.7254 45.3483C85.7254 47.9707 83.6146 50.0965 81.0108 50.0965C78.4069 50.0965 76.2961 47.9707 76.2961 45.3483C76.2961 42.7259 78.4069 40.6 81.0108 40.6C83.6146 40.6 85.7254 42.7259 85.7254 45.3483Z" fill="#FFCE07"/>
<path d="M85.7254 25.3C85.7254 27.9224 83.6146 30.0483 81.0108 30.0483C78.4069 30.0483 76.2961 27.9224 76.2961 25.3C76.2961 22.6776 78.4069 20.5518 81.0108 20.5518C83.6146 20.5518 85.7254 22.6776 85.7254 25.3Z" fill="#FFCE07"/>
<path d="M85.7254 65.3966C85.7254 68.019 83.6146 70.1449 81.0108 70.1449C78.4069 70.1449 76.2961 68.019 76.2961 65.3966C76.2961 62.7742 78.4069 60.6483 81.0108 60.6483C83.6146 60.6483 85.7254 62.7742 85.7254 65.3966Z" fill="#FFCE07"/>
</svg>
